<svg t="1622623186539" class="icon" viewBox="0 0 1024 1024" version="1.1" xmlns="http://www.w3.org/2000/svg" p-id="2496"
  width="200" height="200">
  <path
    d="M940.373333 261.12L511.943111 472.519111 83.342222 261.063111C59.733333 248.604444 61.326222 219.022222 84.764444 208.213333L480.540444 35.441778c19.342222-9.329778 41.813333-9.329778 61.155556 0l395.605333 171.064889c26.737778 12.515556 26.737778 42.097778 3.128889 54.613333z"
    p-id="2497"></path>
  <path
    d="M425.528889 987.477333L62.976 791.495111c-21.959111-10.808889-34.531556-29.582222-34.531556-51.256889v-393.671111c0-23.324444 29.809778-37.376 51.882667-24.917333l403.114667 203.662222v439.580444c1.422222 21.788444-30.435556 39.594667-57.912889 22.584889zM599.836444 987.477333l362.723556-195.982222c20.366222-10.808889 32.995556-29.582222 32.995556-51.256889v-393.671111c0-23.324444-29.866667-37.376-51.882667-24.917333L537.258667 525.084444v439.466667c0 23.324444 32.768 42.496 62.464 22.926222h0.113777z"
    p-id="2498"></path>
</svg>
